<svg data-v-423bf9ae="" xmlns="http://www.w3.org/2000/svg" viewBox="0 0 277 90" class="iconLeft"><!----><!----><!----><g data-v-423bf9ae="" id="03a0fcbc-c6a4-4fa1-adc8-276cb861ef09" fill="white" transform="matrix(5.7915059834320255,0,0,5.7915059834320255,69.28389369185538,-1.2162162390305653)"><path d="M4.75 5.88L4.75 5.88Q6.22 5.88 7.08 6.85L7.08 6.85L7.08 6.85Q7.94 7.83 7.94 9.52L7.94 9.52L7.94 9.52Q7.94 11.21 7.08 12.19L7.08 12.19L7.08 12.19Q6.22 13.16 4.75 13.16L4.75 13.16L4.75 13.16Q3.93 13.16 3.30 12.79L3.30 12.79L3.30 12.79Q2.66 12.42 2.35 11.80L2.35 11.80L2.28 13.02L1.30 13.02L1.30 2.80L2.42 2.80L2.42 7.11L2.42 7.11Q2.76 6.55 3.37 6.22L3.37 6.22L3.37 6.22Q3.98 5.88 4.75 5.88L4.75 5.88ZM4.62 12.18L4.62 12.18Q5.64 12.18 6.23 11.46L6.23 11.46L6.23 11.46Q6.82 10.74 6.82 9.52L6.82 9.52L6.82 9.52Q6.82 8.30 6.23 7.58L6.23 7.58L6.23 7.58Q5.64 6.86 4.62 6.86L4.62 6.86L4.62 6.86Q3.61 6.86 3.02 7.56L3.02 7.56L3.02 7.56Q2.42 8.26 2.42 9.44L2.42 9.44L2.42 9.60L2.42 9.60Q2.42 10.78 3.02 11.48L3.02 11.48L3.02 11.48Q3.61 12.18 4.62 12.18L4.62 12.18ZM11.19 2.80L11.19 11.14L11.19 11.14Q11.19 11.68 11.35 11.88L11.35 11.88L11.35 11.88Q11.51 12.08 11.94 12.08L11.94 12.08L11.94 12.08Q12.24 12.08 12.45 12.04L12.45 12.04L12.45 12.04Q12.67 12.00 12.96 11.89L12.96 11.89L12.78 12.96L12.78 12.96Q12.32 13.16 11.75 13.16L11.75 13.16L11.75 13.16Q10.89 13.16 10.48 12.70L10.48 12.70L10.48 12.70Q10.07 12.24 10.07 11.28L10.07 11.28L10.07 2.80L11.19 2.80ZM20.15 12.21L20.15 12.21Q20.43 12.21 20.71 12.14L20.71 12.14L20.64 13.02L20.64 13.02Q20.24 13.16 19.80 13.16L19.80 13.16L19.80 13.16Q19.25 13.16 18.93 12.92L18.93 12.92L18.93 12.92Q18.62 12.68 18.54 12.12L18.54 12.12L18.54 12.12Q18.21 12.61 17.59 12.89L17.59 12.89L17.59 12.89Q16.97 13.16 16.28 13.16L16.28 13.16L16.28 13.16Q15.25 13.16 14.57 12.68L14.57 12.68L14.57 12.68Q13.90 12.19 13.90 11.28L13.90 11.28L13.90 11.28Q13.90 10.49 14.60 9.90L14.60 9.90L14.60 9.90Q15.30 9.32 16.63 9.10L16.63 9.10L18.49 8.79L18.49 8.40L18.49 8.40Q18.49 7.70 18.06 7.28L18.06 7.28L18.06 7.28Q17.63 6.86 16.86 6.86L16.86 6.86L16.86 6.86Q16.16 6.86 15.64 7.20L15.64 7.20L15.64 7.20Q15.13 7.53 14.85 8.19L14.85 8.19L14.03 7.59L14.03 7.59Q14.31 6.80 15.07 6.34L15.07 6.34L15.07 6.34Q15.83 5.88 16.86 5.88L16.86 5.88L16.86 5.88Q18.10 5.88 18.86 6.48L18.86 6.48L18.86 6.48Q19.61 7.08 19.61 8.26L19.61 8.26L19.61 11.70L19.61 11.70Q19.61 11.96 19.74 12.08L19.74 12.08L19.74 12.08Q19.87 12.21 20.15 12.21L20.15 12.21ZM16.34 12.18L16.34 12.18Q17.22 12.18 17.86 11.76L17.86 11.76L17.86 11.76Q18.49 11.34 18.49 10.67L18.49 10.67L18.49 9.70L16.93 10.00L16.93 10.00Q15.99 10.16 15.53 10.48L15.53 10.48L15.53 10.48Q15.06 10.79 15.06 11.28L15.06 11.28L15.06 11.28Q15.06 11.72 15.40 11.95L15.40 11.95L15.40 11.95Q15.74 12.18 16.34 12.18L16.34 12.18ZM21.83 13.02L21.83 12.17L25.49 7.87L26.38 6.96L25.13 6.99L21.87 6.99L21.87 6.02L27.62 6.02L27.62 6.87L23.95 11.17L23.09 12.08L24.44 12.05L27.73 12.05L27.73 13.02L21.83 13.02ZM35.70 9.16L35.70 9.16Q35.70 9.55 35.64 9.94L35.64 9.94L30.37 9.94L30.37 9.94Q30.46 11.00 31.07 11.59L31.07 11.59L31.07 11.59Q31.68 12.18 32.65 12.18L32.65 12.18L32.65 12.18Q33.42 12.18 33.93 11.91L33.93 11.91L33.93 11.91Q34.44 11.65 34.62 11.14L34.62 11.14L35.56 11.63L35.56 11.63Q35.14 12.38 34.44 12.77L34.44 12.77L34.44 12.77Q33.74 13.16 32.65 13.16L32.65 13.16L32.65 13.16Q31.07 13.16 30.16 12.19L30.16 12.19L30.16 12.19Q29.26 11.23 29.26 9.52L29.26 9.52L29.26 9.52Q29.26 7.81 30.12 6.85L30.12 6.85L30.12 6.85Q30.98 5.88 32.56 5.88L32.56 5.88L32.56 5.88Q33.54 5.88 34.26 6.31L34.26 6.31L34.26 6.31Q34.97 6.75 35.34 7.49L35.34 7.49L35.34 7.49Q35.70 8.23 35.70 9.16L35.70 9.16ZM32.56 6.86L32.56 6.86Q31.64 6.86 31.07 7.41L31.07 7.41L31.07 7.41Q30.51 7.95 30.38 8.95L30.38 8.95L34.62 8.95L34.62 8.95Q34.51 7.97 33.98 7.41L33.98 7.41L33.98 7.41Q33.45 6.86 32.56 6.86L32.56 6.86Z"></path></g><!----><g data-v-423bf9ae="" id="30256cf0-47f3-47a7-b92c-ee25c246c099" transform="matrix(1.0159847446572323,0,0,1.0159847446572323,-21.762149320098416,-6.104188567688077)" stroke="none" fill="white"><path d="M28.423 81.395l3.955 2.287V61.967l-3.955-2.279zM27.198 58.665l.474-.274 3.47-2.011V34.676l-3.944 2.276zM31.914 33.396a.512.512 0 0 1 .052.04c.019.016.034.033.051.051.014.018.027.033.039.051.005.009.014.014.019.021.005.01.005.02.009.027.011.021.019.041.026.063s.014.044.018.067a.331.331 0 0 1 .009.062c.001.01.006.02.006.029v6.855l.984.575.001.001 7.188 4.133 2.223-1.279c.017-.01.036-.01.054-.018a.445.445 0 0 1 .291-.033c.033.006.062.018.094.031.021.008.042.01.062.021l4.954 2.854c.009.006.014.014.022.02a.407.407 0 0 1 .052.041.443.443 0 0 1 .089.1c.006.01.016.014.021.023s.005.02.01.029c.01.019.017.037.023.058a.328.328 0 0 1 .019.068.376.376 0 0 1 .009.065c.001.011.006.019.006.029v2.565l1.473.854V29.088L30.905 18.235v14.564l.988.576c.008.008.013.016.021.021z"></path><path d="M43.287 72.241l1.733-1h.001v-.001l2.22-1.277V48.248l-3.954 2.277zM32.142 41.822v11.121l.236-.138V41.96zM40.567 46.382l-.001.001-1.724.999 3.945 2.278 3.952-2.277-3.952-2.278zM38.343 58.822v11.142l3.944 2.276V50.525l-3.944-2.277zM33.378 83.682l3.965-2.288V59.688l-3.965 2.279zM49.965 52.104l-.001-.001-.001-.001-1.722-.998v15.995l3.945 2.286V53.381l-2.218-1.277zM67.301 63.814l.239.141 1.478-.85-.237-.138zM74.229 36.375l3.208 1.855.736-.423V16.092l-3.944 2.277zM66.803 62.947l1.73-.991.001-.001 2.223-1.287V38.961l-3.954 2.279zM63.084 84.26l3.954 2.277V64.82l-.988-.578-.001-.002-2.965-1.699zM76.937 39.674l-3.955 2.287v21.707l3.955-2.279z"></path><path d="M70.26 62.678l1.723.99V41.959l-.226-.133v19.129c0 .021-.01.04-.012.061a.585.585 0 0 1-.021.101.488.488 0 0 1-.042.086c-.016.026-.031.053-.052.077a.5.5 0 0 1-.077.068c-.017.012-.027.029-.046.041l-1.731 1.004.484.285zM61.858 45.238V60.67l.975.574 2.97 1.703V41.239l-3.945-2.276zM52.186 92.823V71.119l-3.945 2.277V95.1zM43.287 73.396v19.426l3.954 2.28V73.395l-1.972-1.143zM69.763 37.819l-.002-.002h-.001l-3.457-2.008-3.946 2.287 3.946 2.277 3.949-2.275-.487-.278zM48.241 70.252c0 .021-.01.041-.013.062a.516.516 0 0 1-.02.101.46.46 0 0 1-.043.086c-.016.027-.03.053-.052.076-.022.027-.05.048-.078.069-.017.013-.027.03-.046.04l-1.721.99 1.473.854 3.944-2.277-3.445-1.997v1.996zM53.186 75.098l3.954-2.28V51.102l-3.954 2.279v16.871z"></path><path d="M50.714 50.803l4.193-2.421 5.951-3.433v-6.854c0-.01.005-.02.006-.029a.342.342 0 0 1 .009-.063.39.39 0 0 1 .018-.067c.008-.021.016-.042.026-.062.004-.008.004-.018.009-.027.005-.008.014-.013.019-.021.013-.018.025-.035.04-.052a.491.491 0 0 1 .051-.051c.017-.014.031-.026.049-.038.009-.006.014-.015.023-.02l4.944-2.865c.02-.012.041-.013.061-.021a.38.38 0 0 1 .195-.038c.03 0 .059 0 .089.006.035.007.066.02.1.034.02.008.04.009.059.02l2.957 1.718V18.236L50.714 29.088v21.715zM51.215 51.668l1.471.846 3.95-2.276-1.478-.846zM71.982 84.26V64.822l-1.971-1.134-1.973 1.134v21.715zM73.481 37.098l-.997-.568-1.471.853.491.28c.009.006.015.014.023.02a.534.534 0 0 1 .141.141c.006.01.016.015.021.024.005.009.005.02.01.028a.546.546 0 0 1 .042.125c.004.023.008.045.009.068.001.01.006.018.006.027v2.569l.729.43 3.953-2.288-2.954-1.708-.003-.001zM77.673 15.226l-3.944-2.277-3.944 2.277 3.944 2.277zM30.646 33.807l-.489-.286h-.001l-1.231-.709-.004-.001-2.227-1.282-.991.557h-.001L23.23 33.52h-.001l-.482.285 3.951 2.281zM26.198 36.952l-3.944-2.276V56.38l3.944 2.286zM34.624 14.36l3.944-2.277v-.278l-3.944 2.277zM23.479 32.219l.972-.564-.972-.558z"></path><path d="M70.284 16.957a.47.47 0 0 1 .1.089.405.405 0 0 1 .041.054c.006.008.014.012.019.021.005.009.005.019.009.027a.541.541 0 0 1 .053.192c.001.01.006.019.006.03v19.148l1.721-.998c.021-.012.043-.013.064-.021a.468.468 0 0 1 .087-.029c.035-.008.068-.008.103-.008.03 0 .059 0 .088.006.034.006.065.019.098.031.02.008.041.01.06.02l.499.285V18.369l-3.944-2.277v.278l.977.566c.006.006.01.015.019.021zM50.214 6.518l-10.896 6.287-4.944 2.854-2.968 1.711 18.808 10.852 18.799-10.853-.479-.278zM34.124 13.216l3.944-2.277-3.944-2.278-3.952 2.278zM26.454 30.519c.018-.01.037-.011.056-.018a.459.459 0 0 1 .099-.032c.03-.006.061-.006.092-.006a.45.45 0 0 1 .191.039c.019.008.039.009.057.02l2.221 1.277.737-.432v-2.279l-.982-.564h-.001l-.998-.569-3.946 2.275 1.475.849.999-.56z"></path><path d="M29.905 17.37c0-.011.005-.02.006-.03a.342.342 0 0 1 .009-.063.364.364 0 0 1 .019-.07.399.399 0 0 1 .025-.06c.004-.009.004-.019.009-.027.005-.008.014-.013.019-.021a.435.435 0 0 1 .143-.143c.008-.006.013-.015.021-.02l3.469-2v-.854l-3.954-2.278v15.995l.235.136V17.37zM31.893 57.102l-2.97 1.72 3.955 2.278 3.963-2.278-3.963-2.287-.984.566z"></path></g><!----></svg>