<svg data-v-423bf9ae="" xmlns="http://www.w3.org/2000/svg" viewBox="0 0 199.2278146671985 60" class="font"><!----><!----><!----><g data-v-423bf9ae="" id="accb8668-114b-474c-baea-8f11e756190b" fill="black" transform="matrix(5.7915059834320255,0,0,5.7915059834320255,-7.528957260293055,-16.216216239030565)"><path d="M4.75 5.88L4.75 5.88Q6.22 5.88 7.08 6.85L7.08 6.85L7.08 6.85Q7.94 7.83 7.94 9.52L7.94 9.52L7.94 9.52Q7.94 11.21 7.08 12.19L7.08 12.19L7.08 12.19Q6.22 13.16 4.75 13.16L4.75 13.16L4.75 13.16Q3.93 13.16 3.30 12.79L3.30 12.79L3.30 12.79Q2.66 12.42 2.35 11.80L2.35 11.80L2.28 13.02L1.30 13.02L1.30 2.80L2.42 2.80L2.42 7.11L2.42 7.11Q2.76 6.55 3.37 6.22L3.37 6.22L3.37 6.22Q3.98 5.88 4.75 5.88L4.75 5.88ZM4.62 12.18L4.62 12.18Q5.64 12.18 6.23 11.46L6.23 11.46L6.23 11.46Q6.82 10.74 6.82 9.52L6.82 9.52L6.82 9.52Q6.82 8.30 6.23 7.58L6.23 7.58L6.23 7.58Q5.64 6.86 4.62 6.86L4.62 6.86L4.62 6.86Q3.61 6.86 3.02 7.56L3.02 7.56L3.02 7.56Q2.42 8.26 2.42 9.44L2.42 9.44L2.42 9.60L2.42 9.60Q2.42 10.78 3.02 11.48L3.02 11.48L3.02 11.48Q3.61 12.18 4.62 12.18L4.62 12.18ZM11.19 2.80L11.19 11.14L11.19 11.14Q11.19 11.68 11.35 11.88L11.35 11.88L11.35 11.88Q11.51 12.08 11.94 12.08L11.94 12.08L11.94 12.08Q12.24 12.08 12.45 12.04L12.45 12.04L12.45 12.04Q12.67 12.00 12.96 11.89L12.96 11.89L12.78 12.96L12.78 12.96Q12.32 13.16 11.75 13.16L11.75 13.16L11.75 13.16Q10.89 13.16 10.48 12.70L10.48 12.70L10.48 12.70Q10.07 12.24 10.07 11.28L10.07 11.28L10.07 2.80L11.19 2.80ZM20.15 12.21L20.15 12.21Q20.43 12.21 20.71 12.14L20.71 12.14L20.64 13.02L20.64 13.02Q20.24 13.16 19.80 13.16L19.80 13.16L19.80 13.16Q19.25 13.16 18.93 12.92L18.93 12.92L18.93 12.92Q18.62 12.68 18.54 12.12L18.54 12.12L18.54 12.12Q18.21 12.61 17.59 12.89L17.59 12.89L17.59 12.89Q16.97 13.16 16.28 13.16L16.28 13.16L16.28 13.16Q15.25 13.16 14.57 12.68L14.57 12.68L14.57 12.68Q13.90 12.19 13.90 11.28L13.90 11.28L13.90 11.28Q13.90 10.49 14.60 9.90L14.60 9.90L14.60 9.90Q15.30 9.32 16.63 9.10L16.63 9.10L18.49 8.79L18.49 8.40L18.49 8.40Q18.49 7.70 18.06 7.28L18.06 7.28L18.06 7.28Q17.63 6.86 16.86 6.86L16.86 6.86L16.86 6.86Q16.16 6.86 15.64 7.20L15.64 7.20L15.64 7.20Q15.13 7.53 14.85 8.19L14.85 8.19L14.03 7.59L14.03 7.59Q14.31 6.80 15.07 6.34L15.07 6.34L15.07 6.34Q15.83 5.88 16.86 5.88L16.86 5.88L16.86 5.88Q18.10 5.88 18.86 6.48L18.86 6.48L18.86 6.48Q19.61 7.08 19.61 8.26L19.61 8.26L19.61 11.70L19.61 11.70Q19.61 11.96 19.74 12.08L19.74 12.08L19.74 12.08Q19.87 12.21 20.15 12.21L20.15 12.21ZM16.34 12.18L16.34 12.18Q17.22 12.18 17.86 11.76L17.86 11.76L17.86 11.76Q18.49 11.34 18.49 10.67L18.49 10.67L18.49 9.70L16.93 10.00L16.93 10.00Q15.99 10.16 15.53 10.48L15.53 10.48L15.53 10.48Q15.06 10.79 15.06 11.28L15.06 11.28L15.06 11.28Q15.06 11.72 15.40 11.95L15.40 11.95L15.40 11.95Q15.74 12.18 16.34 12.18L16.34 12.18ZM21.83 13.02L21.83 12.17L25.49 7.87L26.38 6.96L25.13 6.99L21.87 6.99L21.87 6.02L27.62 6.02L27.62 6.87L23.95 11.17L23.09 12.08L24.44 12.05L27.73 12.05L27.73 13.02L21.83 13.02ZM35.70 9.16L35.70 9.16Q35.70 9.55 35.64 9.94L35.64 9.94L30.37 9.94L30.37 9.94Q30.46 11.00 31.07 11.59L31.07 11.59L31.07 11.59Q31.68 12.18 32.65 12.18L32.65 12.18L32.65 12.18Q33.42 12.18 33.93 11.91L33.93 11.91L33.93 11.91Q34.44 11.65 34.62 11.14L34.62 11.14L35.56 11.63L35.56 11.63Q35.14 12.38 34.44 12.77L34.44 12.77L34.44 12.77Q33.74 13.16 32.65 13.16L32.65 13.16L32.65 13.16Q31.07 13.16 30.16 12.19L30.16 12.19L30.16 12.19Q29.26 11.23 29.26 9.52L29.26 9.52L29.26 9.52Q29.26 7.81 30.12 6.85L30.12 6.85L30.12 6.85Q30.98 5.88 32.56 5.88L32.56 5.88L32.56 5.88Q33.54 5.88 34.26 6.31L34.26 6.31L34.26 6.31Q34.97 6.75 35.34 7.49L35.34 7.49L35.34 7.49Q35.70 8.23 35.70 9.16L35.70 9.16ZM32.56 6.86L32.56 6.86Q31.64 6.86 31.07 7.41L31.07 7.41L31.07 7.41Q30.51 7.95 30.38 8.95L30.38 8.95L34.62 8.95L34.62 8.95Q34.51 7.97 33.98 7.41L33.98 7.41L33.98 7.41Q33.45 6.86 32.56 6.86L32.56 6.86Z"></path></g><!----><!----></svg>